<?xml version="1.0" encoding="UTF-8"?>
<svg overflow="visible" version="1.1" viewBox="0 0 1700 450"
  xmlns="http://www.w3.org/2000/svg">
  <g transform="translate(250 100)">
    <defs>
      <linearGradient id="a" x1="5" x2="95" y1="95" y2="5" gradientUnits="userSpaceOnUse">
        <stop stop-color="#aad1fd" offset=".05"/>
        <stop stop-color="#2d8dfb" offset=".95"/>
      </linearGradient>
    </defs>
    <g transform="scale(2)">
      <g transform="translate(-10) scale(1.0884)" fill="url(#a)" light-content="false" non-strokable="false">
        <path d="M50 0C35.5 0 21.9 3.6 10 10v20c11.9 6.4 25.5 10 40 10s28.1-3.6 40-10V10C78.1 3.6 64.5 0 50 0zM10 40v20c11.9 6.4 25.5 10 40 10s28.1-3.6 40-10V40c-11.9 6.4-25.5 10-40 10s-28.1-3.6-40-10zm0 30v20c11.9 6.4 25.5 10 40 10s28.1-3.6 40-10V70c-11.9 6.4-25.5 10-40 10s-28.1-3.6-40-10z"></path>
      </g>
      <g class="text" transform="translate(345.4 71.73) scale(1)" fill="#363636" light-content="false">
        <path d="m-219.03-0.54c0.26 0.36 0.67 0.54 1.23 0.54h14.52c5.44 0 10.19-1.07 14.25-3.21s7.19-5.17 9.39-9.09 3.3-8.5 3.3-13.74c0-3.68-0.83-6.91-2.49-9.69s-4.13-4.94-7.41-6.48-7.28-2.31-12-2.31h-13.86c-0.52 0-0.86 0.06-1.02 0.18s-0.28 0.4-0.36 0.84l-5.82 41.52c-0.08 0.6 0.01 1.08 0.27 1.44zm17.13-7.92h-3.36c-0.52 0-0.78-0.26-0.78-0.78v-0.3l3.48-25.38c0.08-0.4 0.21-0.69 0.39-0.87s0.45-0.27 0.81-0.27h3.54c2.84 0 5.03 0.78 6.57 2.34s2.31 3.9 2.31 7.02c0 5.48-1.08 9.89-3.24 13.23s-5.4 5.01-9.72 5.01zm32.43 18.06c0.42 0.2 1.21 0.3 2.37 0.3 2.92 0 5.32-0.3 7.2-0.9s3.59-1.69 5.13-3.27 3.17-3.91 4.89-6.99l16.14-29.22c0.2-0.32 0.3-0.6 0.3-0.84 0-0.32-0.24-0.48-0.72-0.48h-6c-0.68 0-1.24 0.46-1.68 1.38l-7.86 15.42c-0.32 0.56-0.58 0.84-0.78 0.84s-0.36-0.24-0.48-0.72l-3.6-16.08c-0.12-0.56-0.52-0.84-1.2-0.84h-9.66c-0.72 0-1.08 0.36-1.08 1.08 0 0.12 0.04 0.38 0.12 0.78l7.68 28.32c0.04 0.12 0.06 0.3 0.06 0.54 0 0.84-0.42 1.6-1.26 2.28s-1.88 1.02-3.12 1.02h-4.14c-0.64 0-1.14 0.09-1.5 0.27s-0.56 0.39-0.6 0.63l-0.72 5.4c-0.08 0.52 0.09 0.88 0.51 1.08zm41.88-10.02c0.14 0.28 0.41 0.42 0.81 0.42h7.86c0.68 0 1.14-0.07 1.38-0.21s0.4-0.49 0.48-1.05l2.88-19.92c1.04-1.2 2.06-2.1 3.06-2.7s2.08-0.9 3.24-0.9c1.96 0 2.94 0.82 2.94 2.46l-0.12 1.02-2.76 19.62c-0.04 0.16-0.06 0.4-0.06 0.72 0 0.64 0.3 0.96 0.9 0.96h8.1c0.6 0 1.02-0.09 1.26-0.27s0.38-0.53 0.42-1.05l3-21.18c0.08-0.8 0.12-1.36 0.12-1.68 0-2.48-0.77-4.47-2.31-5.97s-3.63-2.25-6.27-2.25c-3.36 0-6.74 1.46-10.14 4.38-0.32 0.24-0.5 0.36-0.54 0.36-0.08 0-0.12-0.08-0.12-0.24v-0.18l0.42-2.88c0.04-0.32 0.02-0.54-0.06-0.66s-0.26-0.18-0.54-0.18h-9c-0.32 0-0.54 0.06-0.66 0.18s-0.22 0.38-0.3 0.78l-4.14 29.16c-0.04 0.56 0.01 0.98 0.15 1.26zm55.41 0.21c1.64-0.54 3-1.35 4.08-2.43 0.48-0.52 0.84-0.78 1.08-0.78 0.2 0 0.3 0.18 0.3 0.54v1.14c0.08 0.64 0.19 1.09 0.33 1.35s0.43 0.39 0.87 0.39h7.2c0.52 0 0.84-0.05 0.96-0.15s0.22-0.43 0.3-0.99l2.94-21c0.08-0.8 0.12-1.38 0.12-1.74 0-5.68-4.36-8.52-13.08-8.52-7.76 0-12.88 2.16-15.36 6.48-0.2 0.44-0.3 0.88-0.3 1.32 0 0.56 0.24 0.88 0.72 0.96l6.78 1.44c0.16 0.04 0.36 0.06 0.6 0.06 0.32 0 0.58-0.16 0.78-0.48 1.28-2.2 3.36-3.3 6.24-3.3 2.28 0 3.42 0.96 3.42 2.88 0 0.16-0.04 0.48-0.12 0.96l-0.18 1.14c-0.12 0.76-0.56 1.14-1.32 1.14l-1.2 0.06c-3.12 0.04-6.15 0.48-9.09 1.32s-5.39 2.18-7.35 4.02-2.94 4.2-2.94 7.08c0 2.32 0.79 4.22 2.37 5.7s3.77 2.22 6.57 2.22c1.88 0 3.64-0.27 5.28-0.81zm6.72-13.89-0.48 3.54c-0.12 0.88-0.8 1.84-2.04 2.88-0.48 0.44-1.13 0.79-1.95 1.05s-1.71 0.39-2.67 0.39c-1 0-1.79-0.26-2.37-0.78s-0.87-1.18-0.87-1.98c0-1.84 0.9-3.22 2.7-4.14s3.7-1.44 5.7-1.56l1.44-0.12c0.4-0.04 0.6 0.02 0.6 0.18 0 0.2-0.02 0.38-0.06 0.54zm20.13 13.62c0.26 0.32 0.63 0.48 1.11 0.48h7.5c0.64 0 1.07-0.07 1.29-0.21s0.37-0.49 0.45-1.05l2.88-19.92c2.04-2.4 4.12-3.6 6.24-3.6 1.84 0 2.76 0.8 2.76 2.4 0 0.32-0.02 0.58-0.06 0.78l-2.76 19.92c-0.08 0.52 0 0.93 0.24 1.23s0.58 0.45 1.02 0.45h7.74c0.56 0 0.94-0.09 1.14-0.27s0.34-0.53 0.42-1.05l2.64-18.84c0.04-0.48 0.36-1.06 0.96-1.74 0.76-0.84 1.62-1.53 2.58-2.07s1.94-0.81 2.94-0.81c1.88 0 2.82 0.82 2.82 2.46l-0.12 1.2-2.76 19.44c-0.08 0.52-0.01 0.93 0.21 1.23s0.57 0.45 1.05 0.45h7.74c0.56 0 0.95-0.09 1.17-0.27s0.37-0.53 0.45-1.05l2.94-20.88c0.08-0.48 0.12-1.12 0.12-1.92 0-2.56-0.75-4.58-2.25-6.06s-3.53-2.22-6.09-2.22c-1.68 0-3.5 0.48-5.46 1.44s-3.72 2.16-5.28 3.6c-0.52 0.44-0.86 0.66-1.02 0.66-0.12 0-0.2-0.08-0.24-0.24-0.44-1.72-1.33-3.07-2.67-4.05s-3.03-1.47-5.07-1.47c-3.08 0-6.48 1.46-10.2 4.38-0.32 0.2-0.48 0.16-0.48-0.12v-0.18l0.3-2.34c0.04-0.16 0.06-0.34 0.06-0.54 0-0.36-0.2-0.54-0.6-0.54h-8.94c-0.32 0-0.54 0.06-0.66 0.18s-0.22 0.38-0.3 0.78l-4.14 29.16c-0.04 0.48 0.07 0.88 0.33 1.2zm68.61-0.69c2.2 1.18 4.76 1.77 7.68 1.77 3.44 0 6.57-0.81 9.39-2.43s5.04-3.84 6.66-6.66 2.43-5.99 2.43-9.51c0-2.8-0.59-5.29-1.77-7.47s-2.87-3.88-5.07-5.1-4.78-1.83-7.74-1.83c-3.32 0-6.39 0.8-9.21 2.4s-5.07 3.83-6.75 6.69-2.52 6.11-2.52 9.75c0 2.8 0.6 5.27 1.8 7.41s2.9 3.8 5.1 4.98zm11.85-6.75c-1.18 1.04-2.51 1.56-3.99 1.56-2.8 0-4.2-1.8-4.2-5.4 0-2.96 0.35-5.49 1.05-7.59s1.64-3.68 2.82-4.74 2.49-1.59 3.93-1.59c2.8 0 4.2 1.84 4.2 5.52 0 2.96-0.34 5.48-1.02 7.56s-1.61 3.64-2.79 4.68zm56.73-8.52h8.58c3.48 0 6.6-0.62 9.36-1.86s4.93-3.03 6.51-5.37 2.37-5.11 2.37-8.31c0-2.68-0.7-4.97-2.1-6.87s-3.32-3.32-5.76-4.26-5.18-1.41-8.22-1.41h-18.96c-0.36 0-0.59 0.05-0.69 0.15s-0.19 0.37-0.27 0.81l-5.94 41.88c-0.04 0.16-0.06 0.38-0.06 0.66 0 0.68 0.34 1.02 1.02 1.02h9.42c0.64 0 1.07-0.07 1.29-0.21s0.35-0.49 0.39-1.05l2.04-14.22c0.04-0.32 0.13-0.56 0.27-0.72s0.39-0.24 0.75-0.24zm13.08-18.48c0.92 0.68 1.38 1.68 1.38 3 0 1.84-0.66 3.44-1.98 4.8s-2.94 2.04-4.86 2.04h-6.54c-0.24 0-0.41-0.04-0.51-0.12s-0.15-0.24-0.15-0.48v-0.3l1.2-8.7c0.08-0.44 0.21-0.76 0.39-0.96s0.49-0.3 0.93-0.3h6.3c1.64 0 2.92 0.34 3.84 1.02zm31.08 33.66 5.94-42.06c0.12-0.8-0.12-1.2-0.72-1.2h-8.82c-0.32 0-0.55 0.06-0.69 0.18s-0.23 0.38-0.27 0.78l-6.12 41.88c-0.08 0.48 0.01 0.88 0.27 1.2s0.65 0.48 1.17 0.48h7.5c0.64 0 1.08-0.07 1.32-0.21s0.38-0.49 0.42-1.05zm14.79-0.39c1.5 1.5 3.47 2.25 5.91 2.25 1.88 0 3.66-0.34 5.34-1.02s3.32-1.76 4.92-3.24c0.32-0.24 0.54-0.36 0.66-0.36 0.16 0 0.24 0.08 0.24 0.24v0.12l-0.42 2.76c-0.08 0.6 0.24 0.9 0.96 0.9h8.34c0.36 0 0.59-0.05 0.69-0.15s0.19-0.35 0.27-0.75l4.32-29.16c0.08-0.52-0.01-0.94-0.27-1.26s-0.65-0.48-1.17-0.48h-7.56c-0.64 0-1.07 0.08-1.29 0.24s-0.37 0.5-0.45 1.02l-3 20.4c-2.12 2.12-4.18 3.18-6.18 3.18-1.84 0-2.76-0.86-2.76-2.58 0-0.36 0.02-0.66 0.06-0.9l2.82-19.62c0.08-0.52 0-0.94-0.24-1.26s-0.58-0.48-1.02-0.48h-7.74c-0.6 0-1.01 0.09-1.23 0.27s-0.35 0.53-0.39 1.05l-2.94 20.88c-0.08 0.8-0.12 1.44-0.12 1.92 0 2.52 0.75 4.53 2.25 6.03zm43.23 0.3c2.44 1.3 5.58 1.95 9.42 1.95 2.6 0 5.07-0.42 7.41-1.26s4.24-2.13 5.7-3.87 2.19-3.87 2.19-6.39c0-2.12-0.7-3.97-2.1-5.55s-3.54-2.69-6.42-3.33l-6.36-1.5c-0.96-0.24-1.6-0.51-1.92-0.81s-0.48-0.71-0.48-1.23c0-0.88 0.53-1.56 1.59-2.04s2.31-0.72 3.75-0.72c1.36 0 2.54 0.24 3.54 0.72s1.8 1.08 2.4 1.8c0.52 0.64 0.96 0.96 1.32 0.96 0.2 0 0.38-0.04 0.54-0.12l4.5-2.04c0.4-0.16 0.6-0.42 0.6-0.78 0-0.2-0.08-0.42-0.24-0.66-1.12-1.8-2.72-3.28-4.8-4.44s-4.64-1.74-7.68-1.74c-2.72 0-5.24 0.45-7.56 1.35s-4.17 2.22-5.55 3.96-2.07 3.83-2.07 6.27c0 2.16 0.68 3.88 2.04 5.16s3.42 2.24 6.18 2.88l5.94 1.44c1.16 0.28 1.98 0.6 2.46 0.96s0.72 0.8 0.72 1.32c0 1.24-0.64 2.06-1.92 2.46s-2.66 0.6-4.14 0.6c-2 0-3.54-0.32-4.62-0.96s-1.94-1.5-2.58-2.58c-0.36-0.52-0.74-0.78-1.14-0.78-0.24 0-0.56 0.1-0.96 0.3l-4.44 2.1c-0.44 0.2-0.66 0.48-0.66 0.84 0 0.16 0.06 0.4 0.18 0.72 1 2.04 2.72 3.71 5.16 5.01z"></path>
      </g>
    </g>
  </g>
</svg>
